<svg xmlns="http://www.w3.org/2000/svg" width="136.914" height="136.914" xml:space="preserve"><circle fill="#FFF" cx="68.457" cy="68.459" r="63.333"/><path fill="#E4E4E4" d="M128.171 47.341a1.67 1.67 0 0 0-.02-.055c-8.106-22.855-28.955-39.67-54.006-41.902 9.693 5.314 9.734 120.809 0 126.145 25.096-2.236 45.975-19.109 54.049-42.025.021-.061.039-.121.061-.18a63.217 63.217 0 0 0 3.535-20.865 63.213 63.213 0 0 0-3.619-21.118z"/><path fill="#F3F4F5" d="M92.41 47.341c-2.479-19.807-8.571-36.643-18.265-41.957a64.105 64.105 0 0 0-5.464-.254v126.655a64.935 64.935 0 0 0 5.464-.256c9.734-5.336 15.838-22.291 18.297-42.205 1.673-13.547 1.662-28.453-.032-41.983z"/><path fill="#036535" d="M68.456 5.125c-27.551 0-50.981 17.596-59.693 42.162A63.209 63.209 0 0 0 5.124 68.46c0 7.312 1.255 14.33 3.535 20.865l.061.18c8.678 24.629 32.14 42.287 59.736 42.287.075 0 .149-.006.226-.006V5.13c-.077-.002-.151-.005-.226-.005z"/><g fill="#E61E25"><path d="M50.15 69.859c0-13.043 10.573-23.618 23.616-23.618 4.388 0 8.497 1.203 12.015 3.287-5.164-5.104-12.26-8.258-20.096-8.258-15.789 0-28.587 12.799-28.587 28.588s12.798 28.59 28.587 28.59c7.836 0 14.932-3.156 20.096-8.26a23.505 23.505 0 0 1-12.015 3.285c-13.042.002-23.616-10.571-23.616-23.614z"/><path d="m86.568 54.854-.351 11.222 10.564 3.805-10.785 3.131-.351 11.224-6.313-9.287-10.783 3.133 6.881-8.875-6.311-9.285 10.568 3.805z"/></g></svg>