<svg xmlns="http://www.w3.org/2000/svg" width="136.913" height="136.914" xml:space="preserve"><path fill="#252F6B" d="M68.455 5.124V131.79c34.979 0 63.334-28.355 63.334-63.332 0-34.981-28.355-63.334-63.334-63.334z"/><path fill="#273375" d="M68.455 5.124c-34.977 0-63.332 28.354-63.332 63.333 0 34.977 28.355 63.332 63.332 63.332 34.979 0 34.979-126.665 0-126.665z"/><path fill="#F3F4F5" d="m48.557 102.209 4.271-5.324-6.598 1.195-2.289-6.391-2.488 6.391-6.736-1.195 4.281 5.207-4.445 5.201 6.775-1.064 2.285 6.259 2.489-6.256 6.91 1.235zM99.039 106.912l2.422-3.017-3.74.677-1.297-3.621-1.41 3.621-3.817-.677 2.426 2.949-2.518 2.949 3.838-.604 1.295 3.545 1.41-3.543 3.916.7zM99.039 40.245l2.422-3.018-3.74.678-1.297-3.621-1.41 3.621-3.817-.678 2.426 2.951-2.518 2.947 3.838-.603 1.295 3.547 1.41-3.545 3.916.699zM114.707 57.491l2.42-3.018-3.738.678-1.297-3.621-1.41 3.621-3.819-.678 2.426 2.951-2.518 2.948 3.838-.604 1.295 3.547 1.41-3.545 3.916.699zM85.486 65.158l2.422-3.017-3.74.678-1.297-3.621-1.41 3.621-3.816-.678 2.425 2.949-2.517 2.949 3.838-.603 1.295 3.544 1.41-3.542 3.916.699z"/><path fill="none" d="m68.457 64.465 1.449 1.449-1.449-1.449zM68.457 7.739v-.002L51.129 25.063zM68.457 68.457v-.855c-.266.291-.541.572-.812.855h.812zM57.814 53.825l10.643 10.64-13.789-13.789zM68.457 16.379 48.088 36.747zM30.906 53.713l3.037-3.037-3.037 3.037z"/><path fill="#29337A" d="M18.424 29.649a64.735 64.735 0 0 0-2.84 3.951h6.789l-3.949-3.951zM51.129 68.457h6.101l-6.101-6.101zM30.906 17.461a63.912 63.912 0 0 0-4.207 3.398l4.207 4.205v-7.603zM24.803 68.457h6.103v-6.103zM68.455 5.124c-6.01 0-11.816.855-17.326 2.42v17.52L68.457 7.737V5.124h-.002zM68.457 62.618v-8.793h-8.793zM7.736 68.457l14.635-14.632H6.842a63.398 63.398 0 0 0-1.719 14.632h2.613zM59.658 33.6h8.799v-8.797z"/><path fill="#FFF" d="M68.457 64.465v-1.847l-8.793-8.793h8.793v-3.149H54.668zM22.373 33.6h-6.789a63.505 63.505 0 0 0-1.941 3.146H26.98l-7.916-7.914c-.217.27-.43.543-.641.816l3.95 3.952zM30.906 62.354v6.103h3.147v-10.71l-10.709 10.71h1.459zM51.129 7.543a63.765 63.765 0 0 0-3.146.982v21.146L68.457 9.198V7.739L51.129 25.063V7.543zM30.795 53.825l.111-.111 3.037-3.037H7.672a62.427 62.427 0 0 0-.83 3.148h15.529L7.736 68.457h8.426l14.633-14.632zM7.736 68.457l14.635-14.632L7.736 68.457zM68.457 36.747V33.6h-8.799l8.799-8.797v-8.424L48.088 36.747zM68.457 24.803 59.658 33.6l8.799-8.797zM30.906 25.065l-4.207-4.205a63.397 63.397 0 0 0-4.287 4.137l8.494 8.494.09.092 3.057 3.057V15.293a63.291 63.291 0 0 0-3.146 2.168v7.604zM51.129 62.356l6.101 6.101h8.038L47.982 51.172v17.285h3.147z"/><path fill="#D32030" d="m30.906 33.491.09.092-.09-.092zM57.814 53.825l-3.146-3.148h13.789v-13.93H48.088l-.105.107v-.107h.105L68.457 16.38V9.198L47.982 29.672V8.526a63.1 63.1 0 0 0-13.93 6.768V36.64l.109.107h-.109v-.107l-3.057-3.057.018.018h-.107v-.109l-8.494-8.494a63.906 63.906 0 0 0-3.348 3.836l7.916 7.914H13.643a62.86 62.86 0 0 0-5.971 13.93h26.271l.109-.111v.111h-.109l-3.037 3.037v.111h-.111L16.162 68.457h7.182l10.709-10.71v10.71h13.93V51.172l17.285 17.285h2.377c.271-.283.547-.564.812-.855v-3.137l-10.643-10.64zM47.982 29.672 68.457 9.198z"/><path fill="#D32030" d="M30.906 53.825v-.112l-.111.112zM34.053 50.565l-.11.111h.11zM47.982 36.854l.106-.107h-.106zM30.906 33.6h.108l-.018-.017-.09-.092zM34.162 36.747l-.109-.108v.108z"/></svg>