<svg xmlns="http://www.w3.org/2000/svg" width="136.914" height="136.914" xml:space="preserve"><circle fill="#FFF" cx="68.457" cy="68.458" r="63.333"/><circle fill="#FFF" cx="68.457" cy="68.458" r="63.333"/><path fill="#258F44" d="M128.171 47.341a1.67 1.67 0 0 0-.02-.055c-8.106-22.855-28.955-39.67-54.006-41.902 9.693 5.314 12.524 22.15 15.004 41.957 1.694 13.529 1.705 28.436.032 41.983-2.459 19.914-5.302 36.869-15.036 42.205 25.096-2.236 45.975-19.109 54.049-42.025.021-.061.039-.121.061-.18a63.218 63.218 0 0 0 3.535-20.866 63.207 63.207 0 0 0-3.619-21.117z"/><path fill="#359846" d="M92.41 47.341c-2.479-19.807-8.571-36.643-18.265-41.957a64.46 64.46 0 0 0-5.689-.26c-27.551 0-50.981 17.596-59.693 42.162a63.207 63.207 0 0 0-3.639 21.172 63.218 63.218 0 0 0 3.535 20.866l.061.18c8.678 24.629 32.14 42.287 59.736 42.287a63.7 63.7 0 0 0 5.689-.262c9.734-5.336 15.838-22.291 18.297-42.205 1.673-13.547 1.662-28.453-.032-41.983z"/><circle fill="#EC1C24" cx="68.457" cy="68.457" r="23.333"/></svg>