<svg xmlns="http://www.w3.org/2000/svg" width="136.914" height="136.913" xml:space="preserve"><circle fill="#FFF" cx="68.457" cy="68.458" r="63.333"/><path fill="#F3C515" d="M128.171 47.341H89.149c1.694 13.529 1.705 28.436.032 41.982h39.073a63.217 63.217 0 0 0 3.535-20.865 63.177 63.177 0 0 0-3.618-21.117z"/><path fill="#D32027" d="M89.149 47.341h39.021a1.67 1.67 0 0 0-.02-.055c-8.106-22.855-28.955-39.67-54.006-41.902 9.695 5.314 12.526 22.15 15.005 41.957z"/><path fill="#258F44" d="M74.146 131.528c25.096-2.236 45.975-19.109 54.049-42.025.021-.061.039-.121.061-.18H89.182c-2.459 19.914-5.302 36.869-15.036 42.205z"/><path fill="#F8D12E" d="M5.124 68.458c0 7.312 1.255 14.33 3.535 20.865h83.783c1.673-13.547 1.662-28.453-.032-41.982H8.743a63.203 63.203 0 0 0-3.619 21.117z"/><path fill="#DB2727" d="M8.763 47.286a1.67 1.67 0 0 0-.02.055H92.41c-2.479-19.807-8.571-36.643-18.265-41.957a64.46 64.46 0 0 0-5.689-.26c-27.551 0-50.981 17.596-59.693 42.162z"/><path fill="#359846" d="M92.442 89.323H8.659l.061.18c8.678 24.629 32.14 42.287 59.736 42.287a63.7 63.7 0 0 0 5.689-.262c9.735-5.336 15.838-22.291 18.297-42.205z"/></svg>