<svg xmlns="http://www.w3.org/2000/svg" width="136.913" height="136.914" xml:space="preserve"><circle fill="#FFF" cx="68.457" cy="68.458" r="63.333"/><path fill="#D32027" d="M5.124 68.458c0 23.805 13.141 44.532 32.557 55.351V13.104C18.265 23.924 5.124 44.65 5.124 68.458z"/><path fill="#FFF" d="M68.456 131.79c-.729 0-1.43-.025-2.145-.037a63.57 63.57 0 0 0 2.145.037z"/><path fill="#E7E7E7" d="m68.456 5.124-.057.001.057-.001c34.979 0 34.979 126.667 0 126.667a63.034 63.034 0 0 0 30.725-7.953V13.076a63.034 63.034 0 0 0-30.725-7.952z"/><path fill="#B52025" d="M99.181 13.076v110.761c19.445-10.811 32.609-31.554 32.609-55.379 0-23.828-13.164-44.571-32.609-55.382z"/><path fill="#F3F1F2" d="M68.456 5.124h-.057a63.047 63.047 0 0 0-30.719 7.98v110.704a62.984 62.984 0 0 0 28.631 7.944c.715.012 1.416.037 2.145.037 34.979.001 34.979-126.665 0-126.665z"/><path fill-rule="evenodd" clip-rule="evenodd" fill="#D32027" d="M93.034 67.313c-.871-.832-2.658-.74-2.977-2.123-.422-3.397 1.141-5.375 2.127-7.645-4.99 1.167-8.924 3.088-8.92-2.548-2.865 3.503-5.945 7.006-7.217 6.37-1.807-1.062 1.734-10.078 2.121-14.862-1.748.798-5.096 2.548-5.096 2.548s-3.043-5.952-4.654-8.888v-.032c-.006.006-.006.011-.008.016-.004-.004-.004-.01-.008-.016v.032c-1.613 2.936-4.654 8.888-4.654 8.888s-3.35-1.75-5.096-2.548c.385 4.785 3.926 13.801 2.119 14.862-1.273.637-4.352-2.867-7.215-6.37 0 5.636-3.932 3.715-8.92 2.548.984 2.269 2.547 4.247 2.121 7.645-.314 1.383-2.102 1.291-2.973 2.123 5.789 5.787 15.822 10.085 11.043 14.863l12.885-1.202c.422 4.354-.941 9.697.242 12.67h.902c1.207-3.08-.172-8.315.25-12.67l12.883 1.202c-4.775-4.778 5.258-9.076 11.045-14.863z"/></svg>