<svg xmlns="http://www.w3.org/2000/svg" width="136.913" height="136.914" xml:space="preserve"><circle fill="#D62427" cx="68.456" cy="68.458" r="63.333"/><path fill="#DC3027" d="M5.123 68.458c0-34.981 28.355-63.334 63.332-63.334 34.979 0 34.979 126.667 0 126.667-34.976-.001-63.332-28.356-63.332-63.333z"/><g fill="#F8D12E"><path d="m41.656 22.561 2.955 9.1h9.569l-7.741 5.621 2.957 9.1-7.74-5.623-7.74 5.623 2.957-9.1-7.74-5.621h9.566zM63.975 17.385l-.932 3.192 2.746 1.873-3.322.097-.93 3.194-1.123-3.131-3.324.101 2.631-2.035-1.123-3.129 2.748 1.873zM63.975 45.972l-.932 3.191 2.746 1.873-3.322.098-.93 3.193-1.123-3.131-3.324.102 2.631-2.035-1.123-3.129 2.748 1.871zM72.078 26.098l-.932 3.192 2.747 1.873-3.323.099-.931 3.192-1.123-3.131-3.323.101 2.629-2.035-1.121-3.129 2.748 1.873zM72.078 37.752l-.932 3.192 2.747 1.873-3.323.098-.931 3.193-1.123-3.13-3.323.101 2.629-2.035-1.121-3.129 2.748 1.871z"/></g></svg>