<svg xmlns="http://www.w3.org/2000/svg" width="136.914" height="136.913" xml:space="preserve"><circle fill="#FFF" cx="68.457" cy="68.457" r="63.333"/><path fill="#BE2126" d="M128.171 47.34a1.67 1.67 0 0 0-.02-.055C120.045 24.43 99.196 7.615 74.146 5.383c9.693 5.314 12.524 22.15 15.004 41.957 1.694 13.529 1.705 28.436.032 41.982-2.459 19.914-5.302 36.869-15.036 42.205 25.096-2.236 45.975-19.109 54.049-42.025.021-.061.039-.121.061-.18a63.217 63.217 0 0 0 3.535-20.865 63.229 63.229 0 0 0-3.62-21.117z"/><path fill="#CD2227" d="M92.41 47.34c-2.479-19.807-8.571-36.643-18.265-41.957a64.46 64.46 0 0 0-5.689-.26c-27.551 0-50.981 17.596-59.693 42.162a63.203 63.203 0 0 0-3.639 21.172c0 7.312 1.255 14.33 3.535 20.865l.061.18c8.678 24.629 32.14 42.287 59.736 42.287a63.7 63.7 0 0 0 5.689-.262c9.734-5.336 15.838-22.291 18.297-42.205 1.673-13.547 1.662-28.453-.032-41.982z"/><path fill="#E4E4E4" d="M130.717 56.887H87.6c.477 7.262.51 14.719.082 22h43.24c.566-3.393.868-6.875.868-10.43a63.27 63.27 0 0 0-1.073-11.57z"/><path fill="#F3F4F5" d="M93.303 56.887H62.682V5.393a62.84 62.84 0 0 0-22 6.145v45.35H6.197a63.27 63.27 0 0 0-1.073 11.57c0 3.555.302 7.037.868 10.43h34.689v46.486a62.863 62.863 0 0 0 22 6.146V78.887h30.703c.428-7.282.395-14.739-.081-22z"/></svg>