<svg xmlns="http://www.w3.org/2000/svg" width="136.913" height="136.913" xml:space="preserve"><circle fill="#FFF" cx="68.456" cy="68.457" r="63.333"/><path fill="#EFECEC" d="M128.17 47.34H89.148c1.695 13.529 1.705 28.436.033 41.982h39.072a63.19 63.19 0 0 0 3.535-20.865 63.177 63.177 0 0 0-3.618-21.117z"/><path fill="#C42B27" d="M89.148 47.34h39.021a.446.446 0 0 0-.02-.055C120.045 24.43 99.195 7.615 74.145 5.383c9.693 5.314 12.525 22.15 15.003 41.957z"/><path fill="#0B0B0B" d="M74.145 131.527c25.096-2.236 45.975-19.109 54.049-42.025.021-.061.039-.121.061-.18H89.182c-2.459 19.914-5.303 36.869-15.037 42.205z"/><path fill="#EFEFEF" d="M5.123 68.457c0 7.312 1.256 14.33 3.535 20.865h83.783c1.674-13.547 1.662-28.453-.031-41.982H8.742a63.203 63.203 0 0 0-3.619 21.117z"/><path fill="#CC3434" d="M8.762 47.285a.954.954 0 0 1-.02.055H92.41c-2.48-19.807-8.572-36.643-18.266-41.957a64.46 64.46 0 0 0-5.689-.26c-27.551 0-50.98 17.596-59.693 42.162z"/><path fill="#151515" d="M92.441 89.322H8.658l.061.18c8.678 24.629 32.141 42.287 59.736 42.287a63.7 63.7 0 0 0 5.689-.262c9.735-5.336 15.838-22.291 18.297-42.205z"/><g fill-rule="evenodd" clip-rule="evenodd" fill="#EEBC31"><path d="M80.816 83.188c-.766-.205-1.902-.037-2.818-.092-.174.102-.152.402-.23.602.09.186.277.084.463.23.289.277.486.652.924.785-.377.395-.367 1.174-.924 1.387.094.908-.496 1.068-1.387 1.246-4.264.85-10.895.936-15.428.322-.562-.074-2.215-.32-2.635-.691-.166-.15-.266-.373-.23-.787-.535-.266-.541-1.061-.969-1.432.598-.203.713-.887 1.387-1.016.02-.283-.102-.424-.141-.646-.951.051-2.107-.107-2.91.092.074-1.033.098-2.207.186-3.418.117-1.619.1-3.516.23-5.127.068-.822.041-1.672.094-2.494.096-1.561.027-3.111.139-4.574.119-1.578.064-3.264.184-4.756.123-1.547.549-2.783 2.355-2.635 2.141.178 3.486 1.971 5.82 1.986 1.084-.67 1.873-3.273 1.57-5.219-.139-.9-1.092-2.201-2.031-1.709-.139-1.518 1.307-1.314 2.262-.832.291-.182.377-.438.693-.508.783-.174 1.789.182 2.172.416.727.445 1.064 1.432 1.062 2.68-.002.646-.146 1.289-.094 1.939.115 1.379.584 2.5 1.156 3.188 2.168.199 3.762-1.732 5.865-1.941.895-.088 1.641.248 2.033.832.598 2.219.408 4.67.6 7.16.115 1.492.047 3.051.139 4.574.209 3.443.313 6.9.463 10.438zM70.422 59.029c-.094-1.254.254-2.598-.184-3.742-.205-.195-.324-.477-.602-.6h-.691c-.346.186-.473.57-.832.646-.854.182-.922-.629-1.57-.877-.168-.066-.396-.029-.602-.094-.619-.189-.986-.41-1.293.463 1.131-.066 2.141.299 2.402 1.248-.646-.18-.465.4-.416.783.238 1.904-.186 3.438-.832 4.482-.307.498-.701.887-.924 1.34.672-.125 1.279-.086 1.617-.51.453-.564.355-1.771.646-2.447-.027 1.434-.434 2.492-1.107 3.279 1.646-.232 1.932-1.605 2.078-3.279.121.83-.1 1.719-.371 2.309.213.266.334.623.648.787.26-.217.453-.502.6-.832-.24-.545-.525-1.535-.277-2.264-.021 1.777.465 3.047 1.988 3.279-.613-.775-1.205-2.059-1.018-3.326.053.994.293 1.801.6 2.541.424.27.959.428 1.619.463-.737-.899-1.36-2.094-1.479-3.649zm-2.908-4.203v.184c.111-.018.1.086.229.047.041-.053.062-.123.047-.23-.06-.063-.218-.063-.276-.001zm-8.916 5.496c-1.021.08-1.572.934-1.57 1.941.447-.154.873-.572 1.34-.555-.25 6.951-.555 13.275-.832 20.141-.402.379-.916.652-1.201 1.154h2.494c.131-1.102 1.369-1.328 2.402-1.018.49-1.695.988-3.383 1.434-5.127-.459.281-.693.785-1.156 1.062.166-4.445.391-8.771.555-13.303.713.555 1.871.588 3.002.416 1.354-.207 2.525-.957 3.371-1.479.887.787 2.512 1.445 4.158 1.57 1.025.078 1.498-.256 2.125-.416.096 4.529.42 8.959.508 13.258-.377-.348-.688-.76-1.107-1.064.408 1.748.939 3.373 1.385 5.082 1.076-.34 2.264-.045 2.449 1.018.814-.031 1.754.061 2.492-.047-.291-.516-1.008-.664-1.199-1.201-.217-.605-.059-1.527-.092-2.311-.254-5.586-.609-12.184-.74-17.781.523.123.855.438 1.34.6-.104-1.113-.566-1.871-1.617-1.941-2.391-.16-3.77 2.039-6.189 1.986 0 .293.471.359.416.555-.463-.033-1.148-.068-1.617-.23-.045.256.42.373.461.691a4.123 4.123 0 0 1-2.17-1.061c-.215.307-.408.639-.693.877-.244-.277-.395-.654-.693-.877-.486.561-1.162.932-2.123 1.016.135-.234.414-.324.461-.646-.426.148-1.135.246-1.617.186.143-.168.387-.23.416-.51-2.297.065-3.896-2.163-6.193-1.986zm4.48 4.99c.092 5.064 2.023 8.693 5.357 10.67 3.178-2.09 5.195-5.584 5.221-10.67-1.629-.021-2.777-.258-3.787-.693-.568-.244-1.115-.693-1.57-.832-1.256.992-2.975 1.524-5.221 1.525zm.092 3.372c-.043 2.244-.402 4.984-.23 7.299.471-1.248.34-2.83.416-4.48.051-1.105.277-2.223-.139-2.957a.216.216 0 0 1-.047.138zm10.256 4.158c0 1.242.061 2.453.461 3.186.047-2.457-.262-5.012-.275-7.438-.061-.002-.064-.057-.139-.045-.321 1.219-.047 2.791-.047 4.297zm-9.516 2.633c.398-.449.842-.852 1.201-1.342-.061-1-.303-1.82-.832-2.354-.144 1.186-1.285 2.717-.369 3.696zm7.76-1.295c.434.4.805 1.104 1.293 1.295.689-1.123-.305-2.328-.414-3.604-.061-.002-.066-.061-.141-.045-.459.569-.728 1.332-.738 2.354zm-6.19 2.08c.426-.453.795-.963 1.154-1.479-.574-.457-.992-1.07-1.523-1.572.119 1.021.186 2.092.369 3.051zm4.666-1.434c.404.473.689 1.066 1.201 1.434.094-1 .17-2.016.322-2.957-.004-.057-.014-.109-.092-.094-.427.59-.936 1.098-1.431 1.617zm-6.375.924c-.057-.297-.213-.494-.277-.783-.398.531-.445 1.326-.646 2.031-.074.258-.252.469-.23.74.529-.227.746-.764 1.293-.971.098.457.326.781.461 1.201.428-.205.408-.855.787-1.109.209.744.428 1.48.691 2.172.492-.416 1.053-.766 1.201-1.525a48.707 48.707 0 0 1-.785-1.939c-.375.256-.613.896-.924 1.062-.084-.764-.033-1.66-.324-2.217-.381.481-.772.949-1.247 1.338zm7.668.924c-.336-.342-.568-.785-.924-1.107-.133.303-.289.602-.416.924s-.355.719-.369 1.016c-.035.725.764 1.064 1.201 1.525.203-.721.293-1.555.6-2.172.287.361.416.879.832 1.109.213-.387.361-.84.555-1.248.395.346.76.721 1.201 1.018-.201-.834-.453-2.01-.832-2.818a3.624 3.624 0 0 1-.369.83c-.43-.416-.756-.938-1.248-1.293-.139.677-.195 1.437-.231 2.216zm-4.712-1.754c-.748.533.082 1.615.371 2.219.131-.533.252-1.074.369-1.619a17.139 17.139 0 0 1-.74-.6zm2.587.646c.139.523.146 1.178.416 1.572.258-.545.449-1.154.691-1.711-.131-.191-.215-.432-.461-.508-.11.319-.517.345-.646.647zm-5.589 1.385c-.363.377-.713.766-1.201 1.018-.322.932.344 1.723.646 2.447.42-.305.6-.85 1.018-1.154.168.541.283 1.133.555 1.57.453-.318.713-1.07 1.152-1.246.102.5.096 1.105.371 1.432.164-.883.375-1.719.553-2.588-.373.076-.645.646-1.016.879-.256-.668-.422-1.424-.691-2.08-.363.254-.414.82-.74 1.109-.188-.49-.321-1.033-.647-1.387zm8.591 1.387c-.264-.383-.42-.871-.832-1.109-.166.695-.355 1.369-.506 2.08-.385-.221-.643-.805-1.018-.879.186.906.291 1.895.646 2.633.076-.539.168-1.064.324-1.523.416.4.633.998 1.154 1.293.145-.549.342-1.043.508-1.57.391.334.576.871 1.018 1.154.256-.742.906-1.434.645-2.4-.48-.305-.838-.732-1.293-1.064-.269.406-.366.985-.646 1.385zm-5.033 3.648c-.238.133-.406.336-.648.463-.098-.115-.383-.492-.461-.324-.064.184-.072.422-.139.602.441.041 1.312-.129 1.523.277.625-.086 1.129.117 1.617 0 .182-.045.324-.242.508-.277.344-.068.678.061 1.018 0-.062-.201-.014-.51-.141-.646-.303-.012-.25.332-.553.322-.158-.211-.443-.297-.602-.508-.176-1.285-.287-2.639-.553-3.834-.105 1.277.188 2.551.137 3.926-.248.213-.367.557-.646.74-.105-.309-.525-.467-.602-.877-.201-1.129.42-2.879.141-3.789-.259 1.248-.316 2.701-.599 3.925zm-5.914.047c.197.125.426.221.785.184.303-.357.51-.812.877-1.107.164.498.336.99.557 1.432h.322c.25-.303.389-.719.646-1.016.162.361.24.807.414 1.154.211.084.553.033.832.047.467-.791.285-2.047-.045-2.863-.424.377-.674.926-1.109 1.293-.188-.535-.256-1.191-.602-1.57-.322.367-.611.771-.922 1.154-.328-.58-.42-1.398-.879-1.848-.247 1.089-.561 2.115-.876 3.14zm12.242-1.293c-.32-.389-.551-.869-.971-1.154-.271.451-.312 1.135-.602 1.57-.355-.4-.676-1.076-1.107-1.248-.213.943-.492 2.031.047 2.818.264-.012.588.035.785-.047.213-.324.248-.828.461-1.154.195.344.404.672.6 1.016h.369c.207-.486.35-1.037.602-1.479.25.443.549.836.877 1.201.258-.066.584-.062.693-.277-.312-.996-.574-2.043-.877-3.047h-.139a22.155 22.155 0 0 1-.738 1.801zm-11.318 1.571c.389.045.684.178 1.109.184-.146-.393-.217-.861-.508-1.107-.156.35-.482.534-.601.923zm11.086.183c.264.023.709-.146 1.062-.184-.035-.279-.395-.617-.6-.877-.29.217-.351.667-.462 1.061zm-9.285.094c.152.094.469.025.693.047-.088-.268-.072-.637-.322-.74-.137.218-.299.408-.371.693zm7.9.047h.646c-.061-.342-.176-.627-.463-.74-.011.275-.249.535-.183.74zm4.481-.649c-1.08.236-2.484.645-3.834.787a19.176 19.176 0 0 1-2.957.092c-.271.293-.131.629.047.924.939.141 1.994.076 2.91-.047-.051-.98 1.113-1.223 1.246-.184.998-.219 2.115-.32 2.91-.74.008-.39.006-.775-.322-.832zm-13.211.694c-.793-.113-1.861-.488-2.588-.646-.412-.09-.535-.016-.691.184v.648c.85.35 1.895.506 2.91.693.086-1.043 1.258-.848 1.199.184 1.004.121 1.883.188 2.912.047.205-.324.34-.562.092-.924-1.235.027-2.34.03-3.834-.186zm-4.203.554c.32-.082.568-.232.785-.416-.021-.225.047-.541-.047-.693-.518.072-.887.527-.738 1.109zm17.875-.369c.232.152.467.305.785.369.109-.545-.221-1.037-.738-1.109-.096.166-.026.5-.047.74zm-13.442 1.246c.1-.115.242-.188.369-.277.033-.371-.014-.662-.184-.83-.812-.113-.781 1.017-.185 1.107zm9.377-.322c.066.16.279.195.461.322.189-.104.279-.307.416-.461-.023-1.013-1.186-.599-.877.139zm-10.07-.092c-1.23-.041-2.469-.904-3.557-.369-.035.225-.201.32-.139.645-.521-.055-1.121.639-1.154.879-.072.525.451.906.738 1.248-.033.324.029.555.139.736 3.91 1.295 10.371 1.322 15.197.787 1.418-.158 3.678-.303 4.066-1.109v-.555c.512-.135.594-.697.738-1.201-.41-.268-.549-.805-1.201-.83.129-.186-.09-.355-.092-.555-.576-.49-1.264-.131-2.078.045-1.119.244-1.852.246-2.127 1.064-.115-.285-.391-.41-.6-.602-.883.129-2.045.223-2.955.047-.24.375-.768.463-.832 1.016-.131-.346-.35-.605-.324-1.109h-.461c-.066.43-.16.826-.371 1.109-.037-.562-.586-.613-.783-1.016-.893.207-2.172.02-2.959 0-.316.098-.451.377-.691.555-.035-.41-.369-.523-.554-.785zm5.035-.556c.057.238.215.371.324.557.562.115.613-.279.785-.557-.271-.075-.838-.075-1.109 0zm-.647.787c.197.201.393.408.693.508.18-.479.055-1.189-.463-1.248.042.365-.269.376-.23.74zm1.987-.74c-.287.207-.648.975-.186 1.248.176-.227.49-.311.602-.602-.194-.16-.151-.559-.416-.646z"/><path d="M59.383 79.955c-.498.439-1.08 1.043-1.57 1.338.219-6.305.621-12.783.832-19.307.477.217 1 .783 1.432 1.201-.2 5.641-.462 10.811-.694 16.768zM78.969 81.248c-.264.051-.521-.381-.785-.602-.299-.248-.65-.455-.832-.738-.291-4.758-.221-9.779-.602-14.318-.057-.705-.199-1.932-.092-2.357.145-.562 1.1-.777 1.387-1.291.353 5.794.594 13.064.924 19.306zM60.492 63.512c.443.248.764.619 1.154.924-.111 3.713-.344 8.158-.508 11.869-.023.543.133 1.398-.047 1.895-.195.537-.949.826-1.293 1.293.202-5.38.516-10.71.694-15.981zM76.936 79.4c-.061.064-.189-.098-.277-.186-.273-.27-.654-.686-.924-.969-.234-4.518-.412-9.232-.6-13.719.26-.418.703-.652 1.062-.971.27 4.861.506 10.633.739 15.845zM73.24 65.543c-.07 4.732-1.922 8.086-4.85 10.115-2.992-2.057-4.742-5.357-5.035-10.115 2.111-.014 3.906-.59 5.035-1.432 1.139.955 2.833 1.354 4.85 1.432zm-6.513-.324c-.082 1.891-.045 4.438-.045 6.514 0 .758-.156 1.648 0 2.217.082.297.541.572.785.785.316.277.574.527.877.693.451-.354 1.551-.895 1.711-1.479.15-.559 0-1.418 0-2.17v-6.561c-.6-.295-1.164-.623-1.756-.924-.424.411-1.117.548-1.572.925zM60.354 82.264c.289.096.746.023.785.371-.244.09-.441-.227-.785-.186v-.185zM76.428 82.357c-.201.168-.523.213-.785.322-.008-.322.619-.478.785-.322zM61.74 82.727c.389.043.76.102.969.322-.303.012-.908-.063-.969-.322zM75.043 82.773c-.135.164-.699.318-1.018.275.215-.183.682-.364 1.018-.275zM72.502 83.373c-.242.076-.775.076-1.018 0 .08-.312.914-.285 1.018 0zM65.389 83.234c-.09.342-.74.123-1.109.184.029-.414.8-.184 1.109-.184zM66.773 83.328c-.225.119-.711.201-.971.137.093-.25.704-.221.971-.137zM70.932 83.512c-.354-.018-.648-.092-.971-.139.174-.164.971-.178.971.139zM77.307 85.268c.209-.006.096-.336.322-.324-.033.141.047.168.045.277-.268.143-.498.213-.83.092-.363.193-.812.859-1.293.369-.332.055-.283.486-.555.602-.369-.291-.686-.148-1.248-.094-.166.189-.18.527-.508.555.02-.211.273-.188.277-.414-.051-.15-.314-.086-.416-.186-.086-.379.209-.377.324-.555.211.051.229.293.277.51.172.002.291-.047.416-.094.039-.268.176-.439.322-.6-.008-.256-.166-.604-.139-.74.264.061.137.512.277.693.355-.033.566.082.646.322.359-.137.467-.555.924-.553.201 0 .309.176.508.139.055-.613-.105-1.873-.877-1.387.035-.242.377-.18.646-.184.485.333.02 1.615.882 1.572zm-1.618.369c.213.191.748.088.693-.277-.13-.233-.784-.133-.693.277zm-.923.23c.105-.033.234-.041.322-.092 0-.527-.738-.265-.322.092zm-.416.139c.115.008.143-.072.23-.094-.002-.15.02-.324-.139-.322-.084.082-.216.267-.091.416zm-1.11.094c.143.064.209.02.324-.047 0-.109-.08-.137-.047-.277-.191.009-.312.085-.277.324zm1.571 0c.146.123.338-.006.324-.188-.143.029-.326.012-.324.188zM60.537 83.928v.23c-.066.072-.236.041-.369.047-.039-.164-.006-.115-.045-.277.127-.112.27-.084.414 0zM60.445 84.482c.006.082-.057.098-.047.184-.188.004-.361-.006-.369-.184.076-.07.342-.07.416 0zM70.146 84.852h.184c.068.066.068.303 0 .369h-.184c-.068-.067-.068-.303 0-.369zM65.064 84.943c.143.602.246 1.9-.277 1.986-.521.084-.371-.703-.877-.74-.309.113-.691.244-1.016.094-.23.016-.193.299-.416.324.297-.307.172-.697.139-1.064.248.029.283.271.277.557.133.279.689.092.877 0-.1-.195-.225-.363-.324-.557.283-.074.283-.336.555-.322.451.021.561.719.092.924.303.113.34.492.602.646.609-.131.163-1.312.368-1.848zm-1.384.739c-.008.176.152.277.322.371.779-.35-.293-1.112-.322-.371zM65.666 84.943c.15.318-.053 1.047-.094 1.479-.133-.303.028-1.072.094-1.479zM70.793 84.943c.309.307-.055 1.287.322 1.523.316-.094.529-.051.602-.322.064-.24-.268-.383-.092-.555.412.02.139.6.092.832-.482.129-.975.174-1.387.092.025-.236.273-.25.463-.324.174-.398-.1-.923 0-1.246zM70.516 85.498c.029.27-.559.115-.369-.047.066-.062.365-.094.369.047zM72.225 87.023c.062-.248.215-.4.324-.602-.129-.258-.637-.5-.279-.832.71.106.376 1.265-.045 1.434zm.045-1.203c.023.178.096.307.279.324.111-.136-.098-.478-.279-.324zM77.352 85.775c-.002.27-.33.18-.461.092.072-.258.308-.181.461-.092zM66.959 85.729c.422.295 1.197.455 1.754.23.135.129.121.404.232.555.055-.053.162-.053.277-.047-.096-.549.668-.684.646-.092-.141.262-.555.246-.971.232-.189.104-.189.395-.369.506-.205-.072-.375-.18-.416-.414-.641-.133-.725-.053-1.479-.092-.186.219-.365.672-.646.646.135-.236.398-.34.463-.646-.086-.176-.408-.314-.232-.602.443-.072.227.514.6.508.393-.159.092-.527.141-.784zm.139.785c.25.002.674.008 1.016.047.145.117.162.361.369.416.152-.201.414-.58.186-.877-.509.421-1.62-.547-1.571.414zm2.308-.047c.24.041.328-.072.324-.277-.175-.235-.488.037-.324.277zM60.215 85.959c.146-.039.143.072.23.094.006.141-.057.221-.092.322-.267-.037-.267-.27-.138-.416zM61 86.145c.195.32-.275.492-.416.23.018-.197.164-.268.416-.23zM61.693 86.514c-.045.002-.037.057-.047.094h-.324a.214.214 0 0 1 .371-.094zM70.746 86.791c.246.006.217.4.047.463-.188-.025-.174-.381-.047-.463zM71.393 87.254c-.135-.051-.273-.098-.322-.23.14-.442.706-.047.322.23zM60.77 83.928h.139c.014.637-.951 1.725.139 1.801.178-.113.08-.504.322-.555.027.244-.094.338-.139.508.211.592 1.275.256.832-.414.518.008.111.561.045.785-.299.141-.729-.008-.969-.186-.514-.041-.967-.143-1.016-.646.461-.186.563-.731.647-1.293z"/></g></svg>