<svg xmlns="http://www.w3.org/2000/svg" width="136.602" height="135.696" xml:space="preserve"><circle fill="#FFF" cx="68.301" cy="67.849" r="63.333"/><path fill="#EFECEC" d="M128.015 46.732a3.504 3.504 0 0 0-.02-.056C119.889 23.822 99.04 7.008 73.989 4.775c9.693 5.314 12.524 22.15 15.004 41.957 1.694 13.529 1.705 28.436.032 41.982-2.459 19.914-5.302 36.869-15.036 42.205 25.096-2.236 45.975-19.109 54.049-42.025.021-.061.039-.121.061-.18a63.223 63.223 0 0 0 3.535-20.866c0-7.407-1.283-14.51-3.619-21.116z"/><path fill="#F3F4F5" d="M92.254 46.732c-2.48-19.806-8.571-36.642-18.265-41.957a64.46 64.46 0 0 0-5.689-.261c-27.551 0-50.981 17.597-59.693 42.162a63.202 63.202 0 0 0-3.639 21.172c0 7.313 1.255 14.33 3.535 20.866l.061.18c8.678 24.629 32.14 42.287 59.736 42.287a63.7 63.7 0 0 0 5.689-.262c9.734-5.336 15.838-22.291 18.297-42.205 1.673-13.546 1.662-28.452-.032-41.982z"/><path fill="#BE2126" d="M130.561 56.279H87.443c.477 7.262.51 14.718.082 22h43.24c.566-3.394.868-6.876.868-10.431a63.18 63.18 0 0 0-1.072-11.569z"/><path fill="#D32027" d="M93.146 56.279H62.525V4.784a62.863 62.863 0 0 0-22 6.146v45.35H6.041a63.26 63.26 0 0 0-1.073 11.569c0 3.555.302 7.037.868 10.431h34.689v46.486a62.863 62.863 0 0 0 22 6.146V78.279h30.703c.428-7.282.395-14.738-.082-22z"/></svg>