<svg xmlns="http://www.w3.org/2000/svg" width="136.914" height="136.914" xml:space="preserve"><circle fill="#FFF" cx="68.457" cy="68.459" r="63.333"/><path fill="#E4E4E4" d="M128.171 47.341a1.67 1.67 0 0 0-.02-.055c-8.106-22.855-28.955-39.67-54.006-41.902 9.693 5.314 12.524 22.15 15.004 41.957 1.694 13.53 1.705 28.436.032 41.983-2.459 19.914-5.302 36.869-15.036 42.205 25.096-2.236 45.975-19.109 54.049-42.025.021-.061.039-.121.061-.18a63.217 63.217 0 0 0 3.535-20.865 63.213 63.213 0 0 0-3.619-21.118z"/><path fill="#F3F4F5" d="M92.41 47.341c-2.479-19.807-8.571-36.643-18.265-41.957a64.46 64.46 0 0 0-5.689-.26c-27.551 0-50.981 17.596-59.693 42.162a63.205 63.205 0 0 0-3.639 21.173c0 7.312 1.255 14.33 3.535 20.865l.061.18c8.678 24.629 32.14 42.287 59.736 42.287a63.7 63.7 0 0 0 5.689-.262c9.734-5.336 15.838-22.291 18.297-42.205 1.673-13.547 1.662-28.453-.032-41.983z"/><path fill="#254B97" d="M130.941 78.75c.078-.471.142-.945.208-1.418.075-.525.146-1.053.208-1.582a65.561 65.561 0 0 0 .285-3.193c.023-.359.051-.717.068-1.076.048-1.002.079-2.008.079-3.021 0-1.137-.04-2.262-.101-3.383-.02-.367-.051-.73-.077-1.098a62.574 62.574 0 0 0-.345-3.498 66.237 66.237 0 0 0-.324-2.201c-.06-.363-.112-.73-.178-1.092-.018-.1-.03-.201-.049-.299h-.013a64.66 64.66 0 0 0-.603-2.936H90.58c.063.973.096 1.957.146 2.936H87.6c.477 7.262.51 14.719.082 22h3.113c-.041.881-.062 1.768-.113 2.646h39.749c.184-.875.339-1.76.486-2.646h.005c.008-.047.013-.092.019-.139z"/><path fill="#3757A6" d="M93.303 56.889h-.006c-.051-.979-.083-1.963-.146-2.936H65.217V5.207c-.852.043-1.692.125-2.535.201v-.014c-.145.014-.286.035-.43.049a66.669 66.669 0 0 0-3.336.42c-.559.084-1.116.168-1.67.268-.599.107-1.191.232-1.784.355-.481.102-.966.191-1.442.303-.984.23-1.959.484-2.925.76-.42.121-.833.254-1.249.383-.643.197-1.281.4-1.914.617-.418.143-.834.293-1.248.445-.65.238-1.295.488-1.936.748-.364.146-.73.291-1.091.445-.846.359-1.681.738-2.507 1.135-.143.068-.287.129-.429.197a.373.373 0 0 1-.04.02v.002a61.988 61.988 0 0 0-3.047 1.592v40.82H6.812a64.66 64.66 0 0 0-.603 2.936h-.012c-.019.098-.031.199-.049.299-.065.361-.118.729-.178 1.092-.119.73-.229 1.463-.324 2.201a63.326 63.326 0 0 0-.345 3.498c-.026.367-.058.73-.077 1.098a62.147 62.147 0 0 0-.101 3.383c0 1.014.031 2.02.079 3.02.018.361.045.721.068 1.08a61.371 61.371 0 0 0 .492 4.771c.067.475.131.949.209 1.42.007.047.012.092.02.139h.005c.147.887.303 1.771.486 2.646h31.151v42.248a63.733 63.733 0 0 0 3.047 1.59v.002l.013.006c.206.102.42.191.628.289.763.363 1.532.715 2.312 1.047.382.164.768.316 1.152.471a62.447 62.447 0 0 0 3.155 1.182c.628.215 1.264.416 1.9.613.417.127.83.262 1.251.383.98.279 1.97.539 2.97.771.449.105.906.189 1.359.283.609.129 1.219.256 1.835.365.544.098 1.093.182 1.642.266.535.08 1.072.156 1.612.223.576.072 1.153.141 1.734.197.146.016.29.037.437.051v-.016c.843.076 1.684.16 2.535.203V81.535H93.25c.052-.879.072-1.766.113-2.646h.02c.429-7.282.396-14.739-.08-22z"/></svg>