<svg xmlns="http://www.w3.org/2000/svg" width="136.913" height="136.914" xml:space="preserve"><circle fill="#FFF" cx="68.456" cy="68.458" r="63.333"/><path fill="#EFECEC" d="M128.17 47.341H89.148c1.695 13.529 1.705 28.436.033 41.982h39.072a63.19 63.19 0 0 0 3.535-20.865 63.177 63.177 0 0 0-3.618-21.117z"/><path fill="#E97E24" d="M89.148 47.341h39.021a.446.446 0 0 0-.02-.055c-8.105-22.855-28.955-39.67-54.006-41.902 9.695 5.314 12.527 22.15 15.005 41.957z"/><path fill="#258F44" d="M74.145 131.528c25.096-2.236 45.975-19.109 54.049-42.025.021-.061.039-.121.061-.18H89.182c-2.459 19.914-5.303 36.869-15.037 42.205z"/><path fill="#EFEFEF" d="M5.123 68.458c0 7.312 1.256 14.33 3.535 20.865h83.783c1.674-13.547 1.662-28.453-.031-41.982H8.742a63.203 63.203 0 0 0-3.619 21.117z"/><path fill="#EA8634" d="M8.762 47.286a.954.954 0 0 1-.02.055H92.41c-2.48-19.807-8.572-36.643-18.266-41.957a64.46 64.46 0 0 0-5.689-.26c-27.551 0-50.98 17.596-59.693 42.162z"/><path fill="#359846" d="M92.441 89.323H8.658l.061.18c8.678 24.629 32.141 42.287 59.736 42.287a63.7 63.7 0 0 0 5.689-.262c9.735-5.336 15.838-22.291 18.297-42.205z"/></svg>