<svg xmlns="http://www.w3.org/2000/svg" width="136.913" height="136.913" xml:space="preserve"><path fill="#F27021" d="M89.571 8.742 82.18 29.234c6.822 22.514 6.822 55.93 0 78.445l7.391 20.49c24.595-8.697 42.219-32.141 42.219-59.715 0-27.569-17.624-51.015-42.219-59.712z"/><path fill="#E4E4E4" d="M89.571 29.234V8.742a63.2 63.2 0 0 0-21.115-3.619c9.766 0-3.775 33.098 21.115 24.111zM68.456 131.789a63.2 63.2 0 0 0 21.115-3.619v-20.49c-24.64-2.459-21.115 24.109-21.115 24.109z"/><path fill="#2DB24A" d="M5.123 68.455c0 27.666 17.744 51.172 42.466 59.799V8.66C22.867 17.287 5.123 40.793 5.123 68.455z"/><path fill="#F69338" d="M89.571 29.234v78.445c6.823-22.515 6.823-55.931 0-78.445z"/><path fill="#F3F4F5" d="M89.571 107.68V29.234C85.259 15 78.222 5.123 68.456 5.123A63.2 63.2 0 0 0 47.589 8.66v119.594a63.198 63.198 0 0 0 20.867 3.535c9.766 0 16.803-9.877 21.115-24.109z"/></svg>