<svg id="SvgjsSvg1011" width="288" height="288" xmlns="http://www.w3.org/2000/svg" version="1.1" xmlns:xlink="http://www.w3.org/1999/xlink" xmlns:svgjs="http://svgjs.com/svgjs"><defs id="SvgjsDefs1012"></defs><g id="SvgjsG1013"><svg xmlns="http://www.w3.org/2000/svg" fill-rule="evenodd" clip-rule="evenodd" image-rendering="optimizeQuality" shape-rendering="geometricPrecision" text-rendering="geometricPrecision" viewBox="0 0 14124 16501" width="288" height="288"><path fill-rule="nonzero" d="M369 0l11261 0 370 0 0 369 0 8473 -739 -739 0 -7364 -10522 0 0 15024 10522 0 0 -3193 739 739 0 2823 0 369 -370 0 -11261 0 -369 0 0 -369 0 -15763 0 -369 369 0zm8956 9604l320 -320 -592 -591c-679,548 -1507,823 -2335,823 -952,0 -1905,-363 -2632,-1090 -727,-727 -1090,-1680 -1090,-2632 0,-953 363,-1905 1090,-2632 727,-727 1680,-1090 2632,-1090 953,0 1905,363 2632,1090 727,727 1090,1679 1090,2632 0,827 -274,1655 -823,2335l592 592 319 -320 3348 3348c331,331 331,872 0,1203l0 0c-331,330 -872,330 -1203,0l-3348 -3348zm-2607 -6863c-781,0 -1563,298 -2159,894 -596,596 -894,1378 -894,2159 0,781 298,1562 894,2159 596,596 1378,894 2159,894 781,0 1563,-298 2159,-894 596,-597 894,-1378 894,-2159 0,-781 -298,-1563 -894,-2159 -596,-596 -1378,-894 -2159,-894zm726 3543c-43,213 -85,426 -111,609 -26,183 -36,336 -45,489 -43,-91 -85,-182 -132,-250 -48,-68 -100,-114 -152,-159 -66,105 -132,210 -150,274 -19,63 11,85 46,320 30,199 64,549 99,923 809,-75 1524,-479 2013,-1079 -82,-273 -195,-425 -364,-543 -183,-127 -644,-215 -820,-306 -176,-91 -280,-184 -384,-278l0 0zm-994 2206c-809,-75 -1524,-479 -2013,-1079 83,-273 195,-425 365,-543 182,-127 643,-215 819,-306 176,-91 280,-184 384,-278l0 0c43,213 85,426 111,609 26,183 36,336 45,489 43,-91 85,-182 133,-250 47,-68 99,-114 151,-159 66,105 133,210 151,274 18,63 -11,85 -47,320 -30,199 -64,549 -99,923zm836 -2596l0 321c0,58 -25,109 -71,144l-511 397 -512 -397c-46,-35 -70,-86 -70,-144l0 -328 -41 -43c-74,-78 -113,-169 -120,-278l-12 -184 -3 0c-36,-12 -66,-24 -89,-43 -23,-19 -38,-44 -55,-93 -18,-49 -37,-122 -51,-188 -14,-65 -22,-123 -26,-174 -4,-51 -3,-94 9,-127 11,-34 43,-61 65,-68 22,-6 34,-2 43,-5 5,-1 15,-6 10,-12 -403,-550 104,-1235 756,-1331 323,-47 644,37 788,391 310,59 413,674 202,926 -6,7 -12,13 -17,19l-1 6c16,1 32,4 46,10 32,12 61,33 74,73 14,40 12,98 7,156 -5,59 -14,117 -28,175 -13,58 -33,117 -50,159 -17,42 -32,67 -55,85 -23,19 -53,32 -90,43 -6,2 -13,4 -21,6l-11 178c-7,107 -46,197 -119,276l-47 50zm-5542 5586l7587 0 0 511 -7587 0 0 -511zm0 1025l7587 0 0 511 -7587 0 0 -511zm0 1025l5847 0 0 511 -5847 0 0 -511zm0 -3076l3793 0 0 511 -3793 0 0 -511z" fill="#0046b1" class="color000 svgShape"></path></svg></g></svg>