<svg xmlns="http://www.w3.org/2000/svg" viewBox="0 0 512 512" id="LookingForNewJob"><path d="M176,240H336a24.0275,24.0275,0,0,0,24-24V120a24.0275,24.0275,0,0,0-24-24H296V88a40,40,0,0,0-80,0v8H176a24.0275,24.0275,0,0,0-24,24v96A24.0275,24.0275,0,0,0,176,240Zm160-16H176a8.00917,8.00917,0,0,1-8-8V140.00024l35.69238,14.87183a136.89226,136.89226,0,0,0,104.61524,0L344,140.00024V216A8.00917,8.00917,0,0,1,336,224ZM232,88a24,24,0,0,1,48,0v8H232Zm-56,24H336a8.00917,8.00917,0,0,1,8,8v2.6665l-41.84668,17.436a120.78609,120.78609,0,0,1-92.30664,0L168,122.6665V120A8.00917,8.00917,0,0,1,176,112Z" fill="#0046b1" class="color000000 svgShape"></path><path d="M480,384V88a24.02718,24.02718,0,0,0-24-24H366.74219a151.74826,151.74826,0,0,0-221.48438,0H56A24.02718,24.02718,0,0,0,32,88V384H16v24a40.04552,40.04552,0,0,0,40,40H380.19678l23.36181,32.98145a37.98275,37.98275,0,0,0,30.96387,15.91015,37.74744,37.74744,0,0,0,35.13989-51.29687A40.06759,40.06759,0,0,0,496,408V384ZM456,80a8.00917,8.00917,0,0,1,8,8V384H427.47046l-11.33325-16H448V96H389.835a152.32753,152.32753,0,0,0-9.96484-16ZM355.68359,282.65381A151.85551,151.85551,0,0,0,397.30859,112H432V352H404.80371ZM256,32c74.99023,0,136,61.00928,136,136S330.99023,304,256,304,120,242.99072,120,168,181.00977,32,256,32Zm31.23877,284.76587L312.19629,352H80V112h34.69141A151.21036,151.21036,0,0,0,104,168c0,83.813,68.18652,152,152,152A152.05727,152.05727,0,0,0,287.23877,316.76587ZM48,88a8.00917,8.00917,0,0,1,8-8h76.12988A152.32753,152.32753,0,0,0,122.165,96H64V368H323.52979l11.33349,16h-2.01855a23.93059,23.93059,0,0,0-13.31348,4.03076l-15.93652,10.625A7.97937,7.97937,0,0,1,299.15527,400H212.84473a7.98069,7.98069,0,0,1-4.43848-1.34326l-15.93848-10.627A23.93184,23.93184,0,0,0,179.15527,384H48Zm8,344a24.02718,24.02718,0,0,1-24-24v-8H179.15527a7.98069,7.98069,0,0,1,4.43848,1.34326l15.93848,10.627A23.93184,23.93184,0,0,0,212.84473,416h86.31054a23.93059,23.93059,0,0,0,13.31348-4.03076l15.93652-10.625A7.97937,7.97937,0,0,1,332.84473,400h13.3518l22.66675,32Zm399.35938,33.05273a21.7844,21.7844,0,0,1-38.74415,6.68067L303.70068,312.3252a151.61131,151.61131,0,0,0,39.36475-19.8042L452.169,446.54932A21.68924,21.68924,0,0,1,455.35938,465.05273ZM480,408a24.03825,24.03825,0,0,1-18.917,23.45312L438.80371,400H480Z" fill="#0046b1" class="color000000 svgShape"></path></svg>